<?xml version="1.0" standalone="no"?>
<!DOCTYPE svg PUBLIC "-//W3C//DTD SVG 20010904//EN"
 "http://www.w3.org/TR/2001/REC-SVG-20010904/DTD/svg10.dtd">
<svg version="1.0" xmlns="http://www.w3.org/2000/svg"
 width="512.000000pt" height="512.000000pt" viewBox="0 0 512.000000 512.000000"
 preserveAspectRatio="xMidYMid meet">
<metadata>
Created by potrace 1.11, written by Peter Selinger 2001-2013
</metadata>
<g transform="translate(0.000000,512.000000) scale(0.100000,-0.100000)"
fill="#000000" stroke="none">
<path d="M2165 4512 c-214 -124 -637 -369 -940 -543 l-550 -317 0 -1093 0
-1093 940 -542 c811 -468 942 -541 960 -532 11 6 306 176 655 378 349 203 763
442 920 532 l285 164 3 136 3 136 -493 -285 c-547 -317 -1342 -774 -1373 -791
-18 -9 -136 56 -845 467 l-825 477 -3 952 -2 952 37 24 c21 13 317 185 658
382 341 196 696 401 789 455 145 83 173 96 190 87 33 -17 1818 -1049 1844
-1066 l22 -14 0 138 -1 139 -876 505 c-482 278 -906 522 -942 542 l-66 37
-390 -227z"/>
<path d="M3370 3213 l0 -628 225 -129 225 -130 -2 -264 -3 -264 -220 -128
-220 -127 -3 -132 c-1 -72 0 -131 4 -131 3 0 156 87 340 193 l334 192 0 400
-1 400 -219 125 -220 125 -2 499 -3 499 -110 63 c-60 35 -113 64 -117 64 -5 0
-8 -282 -8 -627z"/>
<path d="M4210 2561 l0 -802 23 12 c12 7 64 36 115 66 l92 54 -2 671 -3 672
-45 26 c-25 14 -75 43 -112 64 l-68 38 0 -801z"/>
<path d="M2768 2677 l-208 -121 0 -134 c0 -73 3 -131 8 -129 4 2 98 57 209
121 127 73 207 114 218 110 13 -5 15 -24 13 -133 l-3 -126 -172 -100 c-95 -55
-173 -102 -173 -105 0 -3 79 -50 175 -105 l175 -99 0 -262 0 -262 -222 -128
c-121 -70 -226 -127 -232 -127 -6 0 -82 41 -169 92 -86 50 -164 94 -172 98
-14 5 -15 -12 -13 -128 l3 -134 175 -101 175 -102 50 29 c28 16 181 104 342
196 l292 168 1 397 0 397 -55 31 c-30 17 -57 35 -59 39 -3 4 22 22 55 40 l59
33 -2 261 -3 261 -125 72 c-69 40 -127 73 -130 72 -3 0 -98 -55 -212 -121z"/>
<path d="M2135 2311 l-290 -168 -3 -464 -2 -464 115 -67 115 -66 0 457 c0 424
1 459 18 473 9 8 90 57 180 108 l162 93 0 133 c0 74 -1 134 -2 134 -2 -1 -133
-76 -293 -169z"/>
</g>
</svg>
